<?xml version="1.0" standalone="no"?>
<!DOCTYPE svg PUBLIC "-//W3C//DTD SVG 20010904//EN"
 "http://www.w3.org/TR/2001/REC-SVG-20010904/DTD/svg10.dtd">
<svg version="1.0" xmlns="http://www.w3.org/2000/svg"
 width="800.000000pt" height="800.000000pt" viewBox="0 0 800.000000 800.000000"
 preserveAspectRatio="xMidYMid meet">
<metadata>
Created by potrace 1.11, written by Peter Selinger 2001-2013
</metadata>
<g transform="translate(0.000000,800.000000) scale(0.100000,-0.100000)"
fill="#000000" stroke="none">
<path d="M0 4000 l0 -4000 4000 0 4000 0 0 4000 0 4000 -4000 0 -4000 0 0
-4000z m6428 3034 c131 -35 235 -112 314 -232 26 -41 58 -104 70 -141 l23 -66
3 -2012 2 -2013 -2830 0 -2830 0 0 1979 c0 2198 -4 2068 67 2204 42 81 141
188 214 230 25 15 79 36 120 47 72 18 130 19 2434 19 2007 0 2368 -3 2413 -15z
m-3125 -4885 c13 -110 101 -228 213 -284 l59 -30 420 0 c417 0 420 0 470 23
83 38 122 71 160 135 32 53 42 85 61 185 l4 22 1358 0 c1522 0 1392 6 1456
-73 l31 -39 0 -201 c0 -184 -2 -209 -23 -277 -87 -275 -283 -459 -551 -516
-56 -12 -507 -14 -2961 -13 l-2895 0 -94 24 c-253 66 -449 276 -517 555 -21
83 -29 313 -14 383 13 65 53 119 104 142 26 11 266 14 1372 14 l1341 1 6 -51z"/>
<path d="M1890 4810 l0 -1490 2120 0 2120 0 0 1490 0 1490 -2120 0 -2120 0 0
-1490z m1595 851 c48 -21 191 -173 217 -229 25 -54 22 -102 -9 -160 -16 -29
-110 -137 -218 -251 -104 -110 -190 -205 -190 -210 0 -5 88 -102 195 -215 107
-114 206 -226 218 -249 19 -34 23 -52 19 -93 -7 -70 -22 -95 -124 -201 -71
-73 -97 -93 -133 -103 -67 -18 -118 0 -186 69 -181 181 -642 677 -658 707 -23
44 -25 128 -3 169 27 52 682 738 728 763 51 27 91 28 144 3z m1166 9 c43 -12
55 -23 443 -433 160 -169 299 -322 309 -340 28 -51 23 -135 -10 -185 -16 -22
-176 -197 -357 -387 -333 -351 -370 -385 -436 -385 -48 0 -105 37 -174 111
-118 128 -121 132 -121 214 0 69 2 74 40 121 22 27 120 133 219 237 l178 187
-118 126 c-318 336 -324 344 -324 424 0 63 22 102 112 196 109 114 157 137
239 114z"/>
</g>
</svg>
